PathFileType	4	(X/Y/Z)	C:/Users/beibeiliu/ov580/test_trc/User2\sequence.9_training_dense_left.trc
DataRate	CameraRate	NumFrames	NumMarkers	Units	OrigDataRate	OrigDataStartFrame	OrigNumFrames
120	120	7	19	mm	120	221	353
Frame#	Time	ThumbCMC			ThumbMCP			ThumbIP			ThumbTip			IndexMCP			IndexPIP			IndexTip			MiddleMCP			MiddlePIP			MiddleTip			RingMCP			RingPIP			RingTip			PinkyMCP			PinkyPIP			PinkyTip			BackHand1			BackHand2			BackHand3	
		X0	Y0	Z0	X1	Y1	Z1	X2	Y2	Z2	X3	Y3	Z3	X4	Y4	Z4	X5	Y5	Z5	X6	Y6	Z6	X7	Y7	Z7	X8	Y8	Z8	X9	Y9	Z9	X10	Y10	Z10	X11	Y11	Z11	X12	Y12	Z12	X13	Y13	Z13	X14	Y14	Z14	X15	Y15	Z15	X16	Y16	Z16	X17	Y17	Z17	X18	Y18	Z18	
220	1.83333	-182.307	16.3027	79.3835	-194.654	19.5191	51.2613	-199.091	20.5866	16.2394	-196.733	22.8638	-7.44329	-150.142	-21.1798	8.51622	-138.838	-26.0016	-18.6587	-128.403	-29.9575	-41.7264	-131.762	-29.2893	6.7272	-118.429	-31.7609	-22.6318	-103.51	-35.3054	-52.4985	-108.675	-33.0367	13.6386	-98.0726	-32.9925	-6.7618	-90.8977	-33.4975	-34.1187	-94.1678	-29.5904	32.8859	-87.335	-29.7069	12.5784	-83.5876	-32.6232	-14.3466	-126.061	-30.9192	72.7744	-139.085	-26.0863	102.039	-165.098	-18.2716	76.284	
221	1.84167	-182.65	11.1339	83.2313	-196.356	12.7161	53.8654	-202.206	11.2815	18.8136	-206.088	14.7692	-3.43053	-153.684	-29.5167	12.825	-145.476	-35.1354	-13.0048	-135.028	-40.4257	-40.2802	-136.16	-38.5667	7.09292	-121.945	-41.7421	-21.5774	-110.858	-46.6221	-52.337	-115.443	-38.8006	14.9247	-104.59	-40.3873	-9.16019	-96.8481	-43.712	-38.0397	-99.9967	-33.6368	31.5201	-90.8578	-36.0912	9.42381	-85.8716	-41.7106	-15.5754	-127.297	-34.4217	72.766	-132.957	-31.3992	110.382	-164.997	-23.6188	79.5164	
222	1.85	-180.56	7.79082	85.673	-197.191	8.72496	57.087	-206.55	5.62629	23.3417	-211.805	8.01851	-0.851837	-161.484	-35.6997	16.7889	-154.908	-42.1154	-9.47413	-146.359	-49.3715	-35.3675	-141.133	-44.5344	12.1501	-131.371	-49.2728	-21.19	-120.39	-56.7299	-50.5396	-120.923	-45.9314	15.0103	-111.869	-48.7767	-7.61034	-105.11	-52.7125	-35.3999	-102.28	-37.8097	36.0267	-95.2403	-43.5745	6.1117	-92.8078	-50.3111	-17.6179	-126.314	-39.537	75.4452	-132.825	-31.7402	109.034	-161.169	-26.1408	87.2536	
223	1.85833	-183.463	6.86321	88.9307	-198.997	10.4144	65.5586	-207.983	4.98413	32.4676	-219.444	6.80237	7.80973	-167.093	-40.4851	19.6666	-159.893	-49.1436	-4.96101	-152.632	-58.2397	-32.0427	-144.012	-49.8844	13.4188	-141.486	-55.2769	-16.158	-134.945	-64.8055	-48.1027	-128.151	-50.142	18.578	-120.759	-54.6995	-8.98323	-118.586	-58.7541	-33.5548	-109.601	-43.8532	31.2784	-106.45	-47.3493	6.44032	-103.171	-56.6405	-16.9344	-132.891	-41.7549	77.6245	-130.025	-36.4939	109.621	-162.098	-26.9436	89.0534	
224	1.86667	-183.615	8.18843	90.5609	-200.701	8.07159	65.6804	-218.503	8.81082	35.9253	-225.709	8.69385	12.5008	-175.418	-42.752	22.5582	-170.193	-53.709	-3.6721	-166.506	-62.1782	-30.4558	-153.434	-53.6401	14.4443	-149.347	-62.1609	-15.5739	-149.19	-70.3434	-44.9467	-134.206	-52.6098	23.1579	-129.653	-61.3924	-6.44315	-131.566	-65.7895	-32.0074	-114.182	-48.9549	32.8913	-112.217	-53.7689	8.81743	-115.835	-63.2517	-15.7033	-133.764	-42.5437	80.9845	-134.514	-35.0399	113.357	-169.384	-26.8152	90.4412	
225	1.875	-188.683	12.5292	92.8582	-209.523	15.2225	70.6903	-218.559	12.9311	41.3637	-230.304	10.6351	12.7287	-183.338	-43.8109	23.8651	-184.512	-53.8213	-1.95497	-176.263	-64.6519	-23.1806	-166.857	-52.9349	21.0277	-161.234	-64.4498	-10.1756	-161.99	-73.7266	-39.1962	-143.849	-58.0813	20.9545	-146.435	-63.3941	-4.01182	-144.295	-71.0919	-28.7666	-126.699	-50.3323	33.5767	-124.971	-57.6366	9.19707	-127.938	-69.7962	-13.3865	-142.393	-43.1653	82.8723	-139.453	-30.9213	114.766	-173.857	-23.0544	92.9709	
226	1.88333	-189.997	19.3433	91.1441	-205.845	21.7683	67.9933	-225.028	20.4998	36.1822	-231.602	18.1099	11.8702	-193.393	-36.9489	27.5317	-195.174	-51.3239	1.6655	-193.084	-63.1805	-21.2041	-177.985	-52.1409	21.1016	-177.562	-65.3174	-9.884	-179.02	-76.6948	-37.5111	-159.182	-57.0074	23.4515	-156.846	-67.0111	-0.544955	-161.975	-75.3334	-29.034	-135.781	-56.6015	36.0554	-136.227	-64.7294	11.671	-144.446	-71.486	-8.47248	-149.106	-43.8764	81.2928	-149.412	-30.0594	113.233	-177.919	-18.3551	95.5645	
